<svg width="50" height="50" viewBox="0 0 50 50" fill="none" xmlns="http://www.w3.org/2000/svg">
<path d="M29.337 0C28.778 0 28.3558 0.447337 28.1694 0.646571C26.7584 2.18406 22.0652 10.4692 23.5447 11.0218C24.4955 11.3751 25.9559 7.77014 28.9415 7.78141C31.9156 7.79269 33.2848 11.3827 34.3383 11.0218C35.9623 10.4692 31.8852 2.19909 30.4856 0.646571C30.3183 0.466133 29.8999 0 29.337 0Z" fill="#7284FF"/>
<path d="M49.9582 18.6564L41.2184 48.1318C40.5756 49.4475 39.1913 50.173 37.8829 49.9399C36.3769 49.6693 35.7227 48.2558 35.6657 48.1318C33.03 42.1773 30.7899 31.5277 30.1471 29.1932C30.0825 28.9639 29.9075 28.3249 29.7668 28.3399C29.6261 28.355 29.5957 29.0316 29.5843 29.212C29.4474 31.7871 26.8802 41.7788 24.1076 48.1355C24.0467 48.2746 23.423 49.643 21.974 49.9437C20.6619 50.2143 19.228 49.4888 18.5549 48.1355C16.0637 39.7376 13.5726 31.336 11.0853 22.938C10.6631 21.5133 10.241 20.0849 9.81501 18.6601C9.73134 18.3481 9.34721 17.1001 8.08453 16.3144C6.66973 15.4348 5.18266 15.7769 4.66162 15.9385C4.11395 16.1077 3.69559 16.2355 3.61953 16.5438C3.41035 17.3595 5.91669 17.9835 6.2818 19.5511C6.68874 21.2991 4.07211 22.6373 4.38018 23.3102C5.00391 24.6635 17.7181 23.7763 24.9177 15.0401C28.7323 10.4088 29.6147 5.26259 29.8619 2.63495C29.8771 5.29266 29.531 10.3825 26.439 15.416C21.4415 23.5508 10.3779 29.7534 4.38018 26.3175C1.23109 24.5094 -1.14594 19.6789 0.580735 15.7882C2.20092 12.1343 7.35051 9.99158 11.2298 11.6531C13.4737 12.6155 14.6033 14.5514 15.0331 15.4123L15.7443 18.6564C17.6079 25.4116 19.4714 32.1667 21.335 38.9219L26.884 18.6977C27.1692 17.2505 28.4737 16.2167 29.9304 16.2505C31.3147 16.2844 32.5204 17.2843 32.8094 18.6564C34.673 25.4116 36.5366 32.1667 38.4002 38.9219L44.0328 18.6564C44.1735 18.273 44.6451 17.1452 45.8355 16.54C46.9917 15.9536 48.8515 15.8446 49.6388 16.9159C50.0952 17.5399 50.0115 18.3218 49.9544 18.6564H49.9582Z" fill="#7284FF"/>
<path d="M43.8388 19.3181C44.0176 18.743 44.2229 17.743 43.8388 16.6867C43.8388 16.6867 43.6867 16.2732 43.4585 15.9349C42.3822 14.3523 34.3687 14.138 26.3439 18.1904C23.8604 19.4459 22.0386 20.7729 21.0193 21.5736C22.0348 20.5699 23.0465 19.57 24.0619 18.5663C27.424 16.4236 30.44 15.3635 32.4291 14.8071C42.2757 12.0592 48.3076 15.6116 48.783 15.9349C49.8213 16.6378 49.924 17.4385 49.924 17.4385C49.943 17.5964 49.9354 17.728 49.924 17.8145C47.8969 18.3144 45.8659 18.8181 43.8388 19.3181Z" fill="#7284FF"/>
</svg>
